HIERARCHY
ROOT Hips
{
	OFFSET 0.00000 0.00000 0.00000
	CHANNELS 6 Xposition Yposition Zposition Zrotation Yrotation Xrotation 
	JOINT LHipJoint
	{
		OFFSET 0 0 0
		CHANNELS 3 Zrotation Yrotation Xrotation
		JOINT LeftHip
		{
			OFFSET 1.27966 -1.91611 0.81506
			CHANNELS 3 Zrotation Yrotation Xrotation
			JOINT LeftKnee
			{
				OFFSET 2.49511 -6.85528 0.00000
				CHANNELS 3 Zrotation Yrotation Xrotation
				JOINT LeftAnkle
				{
					OFFSET 2.67286 -7.34045 0.00000
					CHANNELS 3 Zrotation Yrotation Xrotation
					JOINT LeftToe
					{
						OFFSET 0.22740 -0.62477 2.32102
						CHANNELS 3 Zrotation Yrotation Xrotation
						End Site
						{
							OFFSET 0.00000 -0.00000 1.20480
						}
					}
				}
			}
		}
	}
	JOINT RHipJoint
	{
		OFFSET 0 0 0
		CHANNELS 3 Zrotation Yrotation Xrotation
		JOINT RightHip
		{
			OFFSET -1.09666 -1.91611 0.81505
			CHANNELS 3 Zrotation Yrotation Xrotation
			JOINT RightKnee
			{
				OFFSET -2.51373 -6.90642 0.00000
				CHANNELS 3 Zrotation Yrotation Xrotation
				JOINT RightAnkle
				{
					OFFSET -2.70173 -7.42295 0.00000
					CHANNELS 3 Zrotation Yrotation Xrotation
					JOINT RightToe
					{
						OFFSET -0.22214 -0.61032 2.18267
						CHANNELS 3 Zrotation Yrotation Xrotation
						End Site
						{
							OFFSET -0.00000 -0.00000 1.13683
						}
					}
				}
			}
		}
	}
	JOINT lowerback
	{
		OFFSET 0 0 0
		CHANNELS 3 Zrotation Yrotation Xrotation
		JOINT Chest
		{
			OFFSET -0.00990 2.16804 -0.08389
			CHANNELS 3 Zrotation Yrotation Xrotation
			JOINT Chest2
			{
				OFFSET 0.06407 2.15456 0.07285
				CHANNELS 3 Zrotation Yrotation Xrotation
				JOINT lowerneck
				{
					OFFSET 0 0 0
					CHANNELS 3 Zrotation Yrotation Xrotation
					JOINT Neck
					{
						OFFSET -0.16931 1.61602 0.24462
						CHANNELS 3 Zrotation Yrotation Xrotation
						JOINT Head
						{
							OFFSET 0.21556 1.63376 -0.33896
							CHANNELS 3 Zrotation Yrotation Xrotation
							End Site
							{
								OFFSET 0.08444 1.69244 -0.14900
							}
						}
					}
				}
				JOINT LeftCollar
				{
					OFFSET 0 0 0
					CHANNELS 3 Zrotation Yrotation Xrotation
					JOINT LeftShoulder
					{
						OFFSET 2.89000 1.40150 -0.54392
CHANNELS 3 Zrotation Xrotation Yrotation
						JOINT LeftElbow
						{
OFFSET 0 -5.107550 0.000000
CHANNELS 3 Zrotation Xrotation Yrotation
							JOINT LeftWrist
							{
OFFSET 0 -3.362530 0.000000
CHANNELS 3 Zrotation Xrotation Yrotation
								JOINT lhand
								{
									OFFSET 0 0 0
CHANNELS 3 Zrotation Xrotation Yrotation
									JOINT LFingers
									{
OFFSET 0 -0.619090 0.000000
CHANNELS 3 Zrotation Xrotation Yrotation
										End Site
										{
OFFSET 0 -0.499120 0.000000
										}
									}
								}
								JOINT LThumb
								{
OFFSET 0 0.000000 0.000000
CHANNELS 3 Zrotation Xrotation Yrotation
									End Site
									{
OFFSET 0 -0.506750 0.506750
									}
								}
							}
						}
					}
				}
				JOINT RightCollar
				{
					OFFSET 0 0 0
					CHANNELS 3 Zrotation Yrotation Xrotation
					JOINT RightShoulder
					{
						OFFSET -2.65771 1.70968 -0.54312
CHANNELS 3 Zrotation Xrotation Yrotation
						JOINT RightElbow
						{
OFFSET 0 -5.273870 0.000000
CHANNELS 3 Zrotation Xrotation Yrotation
							JOINT RightWrist
							{
OFFSET 0 -3.401440 0.000000
CHANNELS 3 Zrotation Xrotation Yrotation
								JOINT rhand
								{
									OFFSET 0 0 0
CHANNELS 3 Zrotation Xrotation Yrotation
									JOINT RFingers
									{
OFFSET 0 -0.742820 0.000000
CHANNELS 3 Zrotation Xrotation Yrotation
										End Site
										{
OFFSET 0 -0.598880 0.000000
										}
									}
								}
								JOINT RThumb
								{
OFFSET 0 0.000000 0.000000
CHANNELS 3 Zrotation Xrotation Yrotation
									End Site
									{
OFFSET 0 -0.608030 0.608030
									}
								}
							}
						}
					}
				}
			}
		}
	}
}
MOTION
Frames: 4
Frame Time: 0.008333333333333333
8.084900 17.438400 24.862600 -170.897000 -0.619600 -179.884000 0.000000 0.000000 0.000000 -4.065200 -10.289300 -32.525300 1.867800 8.585200 24.506200 0.432600 -4.407100 -11.700500 1.227900 -7.027800 -19.797700 0.000000 0.000000 0.000000 33.717500 -0.943900 16.377500 -0.224000 -3.046300 8.407800 -0.531100 -0.322600 -13.889200 -8.220900 16.279400 -53.354600 4.654300 1.311100 8.305300 3.048600 1.904700 2.255100 0.353700 0.799000 -2.259700 -26.177200 -13.371000 5.304000 17.314700 -21.062600 8.329300 8.049400 -10.966400 6.282000 0.000000 0.000000 0.000000 -0.478400 9.235300 -14.905800 17.787000 -27.883600 4.449200 14.257400 6.181600 -30.212600 0.000000 0.000000 0.000000 -7.125000 0.000000 0.000000 -19.619100 59.893700 7.300300 0.000000 0.000000 0.000000 -9.544500 -7.310400 28.183900 -19.619600 -30.181400 -5.338800 -24.331700 -6.748400 -12.358200 0.000000 0.000000 0.000000 7.125000 0.000000 -0.000000 2.016600 16.464600 1.363200
7.916252 17.332999 23.581574 -171.269095 -0.634869 -179.121032 0.000000 0.000000 0.000000 -4.950203 -10.557831 -32.867228 2.872914 10.486217 30.566330 0.104843 -7.124204 -7.151275 0.887197 -6.003981 -16.796078 0.000000 0.000000 0.000000 33.186667 0.360065 15.867088 -0.866692 -5.934752 16.595564 -0.586900 0.248445 -14.395949 -8.055749 16.160139 -52.763335 4.225920 2.351203 9.197134 1.964282 3.325309 2.325375 -0.702195 1.524223 -2.603422 -25.209663 -14.403541 6.015576 17.991648 -22.441957 7.079963 7.974237 -11.589411 6.061548 0.000000 0.000000 0.000000 0.020687 9.269668 -5.579787 13.102250 -21.436656 2.490699 15.790465 12.371664 -29.932534 0.000000 0.000000 0.000000 -7.125000 0.000000 0.000000 -17.781972 59.986951 6.628627 0.000000 0.000000 0.000000 -8.870562 -8.250618 24.396457 -21.907431 -32.872217 -6.535570 -24.638116 -8.315201 -11.994550 0.000000 0.000000 0.000000 7.125000 0.000000 0.000000 1.783092 16.827802 1.191033
7.719366 17.444968 22.025419 -173.221459 -3.910953 -179.697447 0.000000 0.000000 0.000000 -9.096111 -10.178926 -30.163616 3.632115 11.653680 34.518093 -0.102503 -8.243990 -3.368362 1.114659 -6.704284 -18.843272 0.000000 0.000000 0.000000 30.886287 -1.977163 10.541226 -3.033706 -10.742381 31.423221 -0.113402 13.735524 -11.022262 -8.382895 16.393778 -53.930411 2.223605 2.187773 9.387051 0.921948 2.908186 2.759074 -0.615113 1.343030 -2.326761 -26.258121 -14.753690 7.002648 20.731096 -23.612611 6.581857 8.880976 -12.226142 6.507157 0.000000 0.000000 0.000000 0.384696 10.012371 2.362373 10.884456 -18.110915 1.739854 14.345402 16.259446 -29.818559 0.000000 0.000000 0.000000 -7.125000 0.000000 0.000000 -19.233298 59.543940 6.988511 0.000000 0.000000 0.000000 -7.290450 -5.939455 22.286554 -22.324677 -33.341956 -6.763398 -25.093758 -9.745399 -12.175406 0.000000 0.000000 0.000000 7.125000 0.000000 0.000000 1.477303 16.582075 0.994603
7.457766 17.437406 20.458013 -176.673923 -6.606453 -181.630130 0.000000 0.000000 0.000000 -15.405088 -7.594081 -25.096451 4.460152 12.748623 38.434919 -0.232757 -12.617499 -5.318194 0.548903 -4.744490 -13.181592 0.000000 0.000000 0.000000 24.425698 -5.823291 -0.944071 -8.480297 -16.457317 54.268486 3.209136 33.003159 -2.729124 -7.702685 15.895289 -51.483168 -0.642422 1.596922 10.265779 0.028064 1.790369 3.177792 0.177007 0.776553 -2.468638 -26.786519 -14.836564 6.978621 21.072564 -23.827522 6.624339 9.013385 -12.343321 6.691171 0.000000 0.000000 0.000000 0.329098 12.870295 -1.588718 11.866152 -19.603610 2.057228 12.401623 11.051815 -29.441874 0.000000 0.000000 0.000000 -7.125000 0.000000 0.000000 -20.987615 58.752193 7.258561 0.000000 0.000000 0.000000 -6.695970 -2.468337 24.112796 -22.095557 -33.084806 -6.637935 -21.812085 -8.637737 -13.051591 0.000000 0.000000 0.000000 7.125000 0.000000 0.000000 3.793897 15.980529 2.608360
